name mfd
datacolumns  50
datarows  8
range   1.52000000 1.55500000
cursor 1.0 1.0 0.0
keys m_key
wrap
enforce_loops no
enforce_constraints no
calc_derivatives -1.000000
event_color 0.000000 0.000000 0.000000
endheader

            time        pelvis_tz        pelvis_tx        pelvis_ty      pelvis_tilt      pelvis_list       pelvis_rot       lumbar_ext   lumbar_latbend       lumbar_rot         neck_ext     neck_latbend         neck_rot        arm_add_r       arm_flex_r        arm_rot_r     elbow_flex_r        pro_sup_r     wrist_flex_r        arm_add_l       arm_flex_l        arm_rot_l     elbow_flex_l        pro_sup_l     wrist_flex_l       hip_flex_r        hip_add_r        hip_rot_r        knee_tz_r        knee_tx_r        knee_ty_r      knee_flex_r       knee_add_r       knee_rot_r          pf_tz_r          pf_tx_r          pf_ty_r        pf_flex_r         pf_rot_r        pf_tilt_r       hip_flex_l        hip_add_l        hip_rot_l      knee_flex_l     ankle_flex_l     subt_angle_l      mtp_angle_l     ankle_flex_r     subt_angle_r      mtp_angle_r 
      1.52000000      -0.19639400       0.38896200       0.89741000      -8.17730300      -1.95035900       3.11600600      -4.71742400       2.16567000      -4.31375800       0.00000000       0.00000000       0.00000000     -12.31292200       9.84999300     -26.57110600      21.11557000      70.00000000       0.00000000     -12.04289200      11.24076700     -21.17368400      26.62678800      70.00000000       0.00000000      15.43625000       6.36627700      -4.13918400       0.00156300       0.00580600       0.00119700       8.15074800       4.65289900      -8.39144800       0.00491500       0.04934800       0.00249500      17.72006200       3.20100300      -2.43028500      19.98467300      10.48830000       6.02655800      60.62348600      -2.88866100       0.00083200       0.00000000       8.74314100      -0.00099500       0.00000000 
      1.52500000      -0.19596200       0.39467200       0.89866700      -8.31344300      -1.75575600       3.02751500      -4.65387900       1.87680200      -4.12370600       0.00000000       0.00000000       0.00000000     -12.33975100       9.97623300     -25.94025100      21.55945300      70.00000000       0.00000000     -11.87505500      10.87975500     -22.34690900      25.51438700      70.00000000       0.00000000      14.89274700       6.22494200      -4.25969400       0.00160800       0.00563500       0.00119200       7.60841400       4.62762800      -8.41708900       0.00488500       0.04939000       0.00267300      17.56346200       3.17106100      -2.43648000      20.91319200      10.16701400       6.09441600      60.44339500      -2.26467000       0.00091400       0.00000000       8.56450700      -0.00100200       0.00000000 
      1.53000000      -0.19552100       0.40038800       0.89990500      -8.43495600      -1.56036200       2.91925300      -4.60283400       1.58850100      -3.92090900       0.00000000       0.00000000       0.00000000     -12.37163400      10.10181600     -25.33568800      22.02061300      70.00000000       0.00000000     -11.72163500      10.50758800     -23.53331100      24.42948600      70.00000000       0.00000000      14.33784100       6.08674800      -4.37487700       0.00165300       0.00546700       0.00118400       7.06932500       4.59660600      -8.43658600       0.00485200       0.04942800       0.00284700      17.39086400       3.14562700      -2.44272100      21.78933000       9.84205900       6.19295100      60.16398300      -1.67642900       0.00098200       0.00000000       8.37634500      -0.00101200       0.00000000 
      1.53500000      -0.19507100       0.40611300       0.90111800      -8.54090400      -1.36530300       2.79180400      -4.56500800       1.30213000      -3.70609900       0.00000000       0.00000000       0.00000000     -12.40830000      10.22695400     -24.76049200      22.49847100      70.00000000       0.00000000     -11.58359100      10.12229700     -24.72374400      23.37698600      70.00000000       0.00000000      13.77069900       5.95268500      -4.48645900       0.00169600       0.00530300       0.00117500       6.53399400       4.55621400      -8.44944700       0.00481700       0.04946300       0.00302100      17.20445000       3.12402500      -2.44892900      22.61236500       9.51622500       6.32050100      59.78793000      -1.12671100       0.00103400       0.00000000       8.18249200      -0.00102300       0.00000000 
      1.54000000      -0.19461100       0.41184800       0.90229800      -8.63084000      -1.17159000       2.64609100      -4.54064900       1.01891400      -3.48022500       0.00000000       0.00000000       0.00000000     -12.44949800      10.35181500     -24.21716100      22.99224100      70.00000000       0.00000000     -11.46162200       9.72210800     -25.90938800      22.36126300      70.00000000       0.00000000      13.19103300       5.82348700      -4.59614200       0.00173400       0.00514100       0.00116600       6.00297100       4.50282200      -8.45607300       0.00477900       0.04949500       0.00318300      17.00658100       3.10587100      -2.45479100      23.38232500       9.19182400       6.47463600      59.31791600      -0.61714000       0.00107300       0.00000000       7.98661100      -0.00103500       0.00000000 
      1.54500000      -0.19414300       0.41759300       0.90343800      -8.70481500      -0.98012800       2.48333400      -4.52953200       0.73994100      -3.24439600       0.00000000       0.00000000       0.00000000     -12.49501200      10.47651100     -23.70758500      23.50091800      70.00000000       0.00000000     -11.35615200       9.30549300     -27.08200100      21.38608300      70.00000000       0.00000000      12.59911000       5.69965500      -4.70551100       0.00176700       0.00497700       0.00115500       5.47686900       4.43501900      -8.45736200       0.00473300       0.04952300       0.00331500      16.79938700       3.09117800      -2.45992600      24.09993700       8.87068300       6.65222000      58.75653200      -0.14835700       0.00110000       0.00000000       7.79215400      -0.00104800       0.00000000 
      1.55000000      -0.19366500       0.42335100       0.90453000      -8.76336100      -0.79171400       2.30499700      -4.53097600       0.46616400      -2.99983700       0.00000000       0.00000000       0.00000000     -12.54466000      10.60110700     -23.23302200      24.02328800      70.00000000       0.00000000     -11.26732300       8.87121300     -28.23414900      20.45453900      70.00000000       0.00000000      11.99574800       5.58148500      -4.81595300       0.00179600       0.00482300       0.00112900       4.95638300       4.39336100      -8.44616800       0.00470000       0.04954200       0.00350700      16.58248400       3.07914100      -2.46557200      24.76655200       8.55415300       6.84948100      58.10619700       0.27980600       0.00111600       0.00000000       7.60232500      -0.00106200       0.00000000 
      1.55500000      -0.19318100       0.42912100       0.90556600      -8.80746400      -0.60705100       2.11273200      -4.54386400       0.19841600      -2.74783000       0.00000000       0.00000000       0.00000000     -12.59830900      10.72561700     -22.79410800      24.55793000      70.00000000       0.00000000     -11.19499400       8.41834400     -29.35938900      19.56901700      70.00000000       0.00000000      11.38227700       5.46909400      -4.92858800       0.00180800       0.00475400       0.00113500       4.44229200       4.30953900      -8.42127300       0.00470300       0.04956200       0.00387800      16.34873200       3.06712300      -2.47342900      25.38405700       8.24313500       7.06209500      57.36909800       0.66814300       0.00112400       0.00000000       7.42005200      -0.00107600       0.00000000 
